<svg viewBox="0 0 160 40" xmlns="http://www.w3.org/2000/svg" xmlns:xlink="http://www.w3.org/1999/xlink" width="160.000000" height="40.000000" fill="none" customFrame="#000000">
	<g id="myteam 2">
		<path id="myteam" d="M6.21366 18.2366L6.21366 29.5312L0 29.5312L0 8.19196L6.21366 8.19196L6.21366 11.2946C6.72238 10.1935 7.44913 9.32292 8.3939 8.68304Q9.26434 8.16106 10.2057 7.9368Q10.9149 7.76786 11.6642 7.76786Q14.8902 7.76786 16.7545 9.36115Q17.7503 10.2122 18.3576 11.5179Q19.7864 9.14947 21.8522 8.25929Q23.0962 7.72321 24.5712 7.72321Q27.4846 7.72321 29.3767 9.11335Q30.0333 9.59575 30.5669 10.2455Q32.6381 12.7679 32.6381 17.4107L32.6381 29.5312L26.4898 29.5312L26.4898 18.1473C26.4898 16.8378 26.1773 15.8036 25.5523 15.0446Q25.1425 14.5691 24.6262 14.2922Q23.9064 13.9062 22.9797 13.9062Q21.9448 13.9062 21.1773 14.3592Q20.7644 14.6029 20.4288 14.9777C19.7892 15.692 19.4695 16.7783 19.4695 18.2366L19.4695 29.5312L13.2558 29.5312L13.2558 18.0134C13.1977 16.7336 12.8561 15.7292 12.2311 15Q11.8187 14.5297 11.3014 14.2617Q10.6156 13.9062 9.74564 13.9062Q8.8589 13.9063 8.1488 14.2604Q7.63676 14.5158 7.21657 14.9554Q6.21366 16.0045 6.21366 18.2366ZM57.4981 8.19196L44.6347 40L38.0722 40L43.0868 27.3438L35.0417 8.19196L41.6478 8.19196L46.2481 20.2902L50.892 8.19196L57.4981 8.19196ZM68.3174 13.2143L68.3174 29.5312L62.1474 29.5312L62.1474 13.2143L58.3538 13.2143L58.3538 8.19196L62.1474 8.19196L62.1474 0L68.3174 0L68.3174 8.19196L72.6997 8.19196L72.6997 13.2143L68.3174 13.2143ZM95.2923 25.6473C93.3591 28.5491 90.1833 29.9926 85.7646 29.9777C82.6978 29.9777 80.1106 28.9435 78.003 26.875C75.9245 24.7768 74.8853 22.0833 74.8853 18.7946C74.8853 15.506 75.9245 12.8348 78.003 10.7812C80.0815 8.72768 82.6542 7.70833 85.721 7.72321Q88.4146 7.72321 90.5776 8.79461Q92.1086 9.553 93.3737 10.8482C95.4085 12.9315 96.4333 15.6399 96.4478 18.9732C96.4478 19.003 96.4187 19.6577 96.3606 20.9375L81.0771 20.9375C81.1934 22.0685 81.7603 22.9464 82.7777 23.5714C83.7952 24.1964 84.9434 24.5089 86.2225 24.5089C88.2138 24.5089 89.7327 23.8393 90.7792 22.5L95.2923 25.6473ZM90.1905 16.9643L81.1644 16.9643C81.3969 15.8036 81.9783 14.8958 82.9085 14.2411C83.8097 13.5863 84.7835 13.2738 85.83 13.3036C86.8766 13.3333 87.8286 13.6607 88.6862 14.2857C89.5437 14.9107 90.0452 15.8036 90.1905 16.9643ZM113.088 29.2188C111.911 29.7247 110.785 29.9628 109.709 29.933C106.846 29.933 104.36 28.9062 102.253 26.8527Q101.243 25.8691 100.556 24.6966Q99.0912 22.1972 99.0912 18.8393C99.0912 15.5506 100.181 12.8795 102.362 10.8259C104.542 8.77232 106.991 7.7381 109.709 7.72321Q111.366 7.72321 113.11 8.45982C114.273 8.95089 115.167 9.6503 115.792 10.558L115.792 8.19196L121.94 8.19196L121.94 29.5312L115.792 29.5312L115.792 27.0982C115.167 28.006 114.266 28.7128 113.088 29.2188ZM110.712 23.9062C109.302 23.9062 108.088 23.4301 107.071 22.4777C106.024 21.5253 105.501 20.3199 105.501 18.8616C105.501 17.4182 106.024 16.2054 107.071 15.2232C108.205 14.256 109.447 13.7723 110.799 13.7723Q111.758 13.7723 112.594 14.0916Q113.528 14.4476 114.309 15.2009C115.298 16.1533 115.792 17.3735 115.792 18.8616C115.792 20.3497 115.298 21.5625 114.309 22.5C113.321 23.4375 112.122 23.9062 110.712 23.9062ZM133.522 18.2366L133.522 29.5312L127.309 29.5312L127.309 8.19196L133.522 8.19196L133.522 11.2946C134.031 10.1935 134.758 9.32292 135.703 8.68304C136.72 8.07292 137.81 7.76786 138.973 7.76786C142.272 7.76786 144.504 9.01786 145.666 11.5179C147.193 8.9881 149.264 7.72321 151.88 7.72321C154.496 7.72321 156.495 8.56399 157.876 10.2455C159.256 11.9271 159.947 14.3155 159.947 17.4107L159.947 29.5312L153.799 29.5312L153.799 18.1473C153.799 16.8378 153.486 15.8036 152.861 15.0446Q152.451 14.5691 151.935 14.2922Q151.215 13.9062 150.288 13.9062C149.227 13.9062 148.377 14.2634 147.738 14.9777Q146.778 16.0491 146.778 18.2366L146.778 29.5312L140.565 29.5312L140.565 18.0134Q140.477 16.0938 139.54 15Q139.127 14.5297 138.61 14.2617Q137.924 13.9062 137.054 13.9062C136.037 13.9062 135.194 14.256 134.525 14.9554C133.857 15.6548 133.522 16.7485 133.522 18.2366Z" fill="rgb(255,255,255)" fill-rule="evenodd" />
	</g>
</svg>
